<mxfile host="app.diagrams.net" modified="2023-02-22T14:20:31.605Z" agent="5.0 (X11; Ubuntu)" etag="zoVxVyB4YTT9UkftmTnC" version="20.4.1" type="github">
  <diagram id="w6EqPm4UvGB44BVL3NtZ" name="Page-1">
    <mxGraphModel dx="1348" dy="793" grid="1" gridSize="10" guides="1" tooltips="1" connect="1" arrows="1" fold="1" page="1" pageScale="1" pageWidth="850" pageHeight="1100" math="0" shadow="0">
      <root>
        <mxCell id="0" />
        <mxCell id="1" parent="0" />
      </root>
    </mxGraphModel>
  </diagram>
</mxfile>
